# xmcd
# 
# Track frame offsets:
#     150
#     12473
#     25530
#     41125
#     52235
#     67043
#     78663
#     95133
#     111065
#     124450
#     137630
#     150225
#     164390
#     179862
#     196850
# 
# Disc length: 2853
# 
# Revision: 3
# Processed by: cddbd v1.5.2PL0 Copyright (c) Steve Scherf et al.
# Submitted via: fre:ac v1.0.31
# 
DISCID=d70b230f
DTITLE=Emmylou Harris - I've Always Needed You
DYEAR=2006
DGENRE=Country
TTITLE0=Walk Through This World With Me
TTITLE1=Something Draws Me To You
TTITLE2=When My Blue Moon Turns To Gold Again
TTITLE3=I Take The Chance
TTITLE4=I've Always Needed You
TTITLE5=We Must Have Been Out Of Our Minds
TTITLE6=Gone, Gone, Gone
TTITLE7=To Keep Your Memory Green
TTITLE8=Under Your Spell Again
TTITLE9=I'll Never Love Another
TTITLE10=You Made A Memory Of Me
TTITLE11=Before I Met You
TTITLE12=Dying On Sorrow's Wine
TTITLE13=The Best We Could Do
TTITLE14=Nobody's Darling But Mine
EXTD=YEAR: 2006
EXTT0=
EXTT1=
EXTT2=
EXTT3=
EXTT4=
EXTT5=
EXTT6=
EXTT7=
EXTT8=
EXTT9=
EXTT10=
EXTT11=
EXTT12=
EXTT13=
EXTT14=
PLAYORDER=
